<?xml version="1.0" standalone="no"?>
<!-- Generator: Gravit.io -->
<svg xmlns="http://www.w3.org/2000/svg" xmlns:xlink="http://www.w3.org/1999/xlink" style="isolation:isolate" viewBox="0 0 100 100" width="40" height="40">
  <defs>
    <clipPath id="_clipPath_lbVNTjZoUNOQvD7mDcJuCz18ynPQHN6R"><rect width="100" height="100"/></clipPath>
  </defs>
  <g clip-path="url(#_clipPath_lbVNTjZoUNOQvD7mDcJuCz18ynPQHN6R)"><rect width="100" height="100" style="fill:rgba(255,255,255,0)"/>
    <g id="Group"><rect x="1" y="1" width="98" height="98" transform="matrix(1,0,0,1,0,0)" fill="none" vector-effect="non-scaling-stroke" stroke-width="2.005" stroke="rgb(0,0,0)" stroke-linejoin="miter" stroke-linecap="square" stroke-miterlimit="3"/><path
      d=" M 19.72 92.51 L 14.38 92.51 L 14.38 51.83 L 17.56 51.83 L 17.56 51.83 Q 18.7 51.83 19 52.94 L 19 52.94 L 19.45 56.54 L 19.45 56.54 Q 21.4 54.17 23.905 52.73 L 23.905 52.73 L 23.905 52.73 Q 26.41 51.29 29.68 51.29 L 29.68 51.29 L 29.68 51.29 Q 32.29 51.29 34.42 52.295 L 34.42 52.295 L 34.42 52.295 Q 36.55 53.3 38.05 55.265 L 38.05 55.265 L 38.05 55.265 Q 39.55 57.23 40.36 60.14 L 40.36 60.14 L 40.36 60.14 Q 41.17 63.05 41.17 66.83 L 41.17 66.83 L 41.17 66.83 Q 41.17 70.19 40.27 73.085 L 40.27 73.085 L 40.27 73.085 Q 39.37 75.98 37.69 78.095 L 37.69 78.095 L 37.69 78.095 Q 36.01 80.21 33.565 81.425 L 33.565 81.425 L 33.565 81.425 Q 31.12 82.64 28.06 82.64 L 28.06 82.64 L 28.06 82.64 Q 25.24 82.64 23.245 81.71 L 23.245 81.71 L 23.245 81.71 Q 21.25 80.78 19.72 79.07 L 19.72 79.07 L 19.72 92.51 Z  M 27.91 55.61 L 27.91 55.61 L 27.91 55.61 Q 25.3 55.61 23.335 56.81 L 23.335 56.81 L 23.335 56.81 Q 21.37 58.01 19.72 60.2 L 19.72 60.2 L 19.72 74.9 L 19.72 74.9 Q 21.19 76.88 22.945 77.69 L 22.945 77.69 L 22.945 77.69 Q 24.7 78.5 26.86 78.5 L 26.86 78.5 L 26.86 78.5 Q 31.09 78.5 33.37 75.47 L 33.37 75.47 L 33.37 75.47 Q 35.65 72.44 35.65 66.83 L 35.65 66.83 L 35.65 66.83 Q 35.65 63.86 35.125 61.73 L 35.125 61.73 L 35.125 61.73 Q 34.6 59.6 33.61 58.235 L 33.61 58.235 L 33.61 58.235 Q 32.62 56.87 31.18 56.24 L 31.18 56.24 L 31.18 56.24 Q 29.74 55.61 27.91 55.61 Z  M 51.13 82.22 L 47.68 82.22 L 47.68 38.03 L 53.05 38.03 L 53.05 56.21 L 53.05 56.21 Q 54.94 54.02 57.385 52.685 L 57.385 52.685 L 57.385 52.685 Q 59.83 51.35 62.98 51.35 L 62.98 51.35 L 62.98 51.35 Q 65.62 51.35 67.75 52.34 L 67.75 52.34 L 67.75 52.34 Q 69.88 53.33 71.38 55.295 L 71.38 55.295 L 71.38 55.295 Q 72.88 57.26 73.69 60.155 L 73.69 60.155 L 73.69 60.155 Q 74.5 63.05 74.5 66.83 L 74.5 66.83 L 74.5 66.83 Q 74.5 70.19 73.6 73.085 L 73.6 73.085 L 73.6 73.085 Q 72.7 75.98 71.005 78.095 L 71.005 78.095 L 71.005 78.095 Q 69.31 80.21 66.865 81.425 L 66.865 81.425 L 66.865 81.425 Q 64.42 82.64 61.36 82.64 L 61.36 82.64 L 61.36 82.64 Q 58.42 82.64 56.365 81.5 L 56.365 81.5 L 56.365 81.5 Q 54.31 80.36 52.78 78.32 L 52.78 78.32 L 52.51 81.08 L 52.51 81.08 Q 52.27 82.22 51.13 82.22 L 51.13 82.22 Z  M 61.24 55.61 L 61.24 55.61 L 61.24 55.61 Q 58.63 55.61 56.665 56.81 L 56.665 56.81 L 56.665 56.81 Q 54.7 58.01 53.05 60.2 L 53.05 60.2 L 53.05 74.9 L 53.05 74.9 Q 54.49 76.88 56.245 77.69 L 56.245 77.69 L 56.245 77.69 Q 58 78.5 60.16 78.5 L 60.16 78.5 L 60.16 78.5 Q 64.42 78.5 66.7 75.47 L 66.7 75.47 L 66.7 75.47 Q 68.98 72.44 68.98 66.83 L 68.98 66.83 L 68.98 66.83 Q 68.98 63.86 68.455 61.73 L 68.455 61.73 L 68.455 61.73 Q 67.93 59.6 66.94 58.235 L 66.94 58.235 L 66.94 58.235 Q 65.95 56.87 64.51 56.24 L 64.51 56.24 L 64.51 56.24 Q 63.07 55.61 61.24 55.61 Z "
      fill-rule="evenodd"
      fill="rgb(0,0,0)"/><path
      d=" M 19.72 56.51 L 14.38 56.51 L 14.38 15.83 L 17.56 15.83 L 17.56 15.83 Q 18.7 15.83 19 16.94 L 19 16.94 L 19.45 20.54 L 19.45 20.54 Q 21.4 18.17 23.905 16.73 L 23.905 16.73 L 23.905 16.73 Q 26.41 15.29 29.68 15.29 L 29.68 15.29 L 29.68 15.29 Q 32.29 15.29 34.42 16.295 L 34.42 16.295 L 34.42 16.295 Q 36.55 17.3 38.05 19.265 L 38.05 19.265 L 38.05 19.265 Q 39.55 21.23 40.36 24.14 L 40.36 24.14 L 40.36 24.14 Q 41.17 27.05 41.17 30.83 L 41.17 30.83 L 41.17 30.83 Q 41.17 34.19 40.27 37.085 L 40.27 37.085 L 40.27 37.085 Q 39.37 39.98 37.69 42.095 L 37.69 42.095 L 37.69 42.095 Q 36.01 44.21 33.565 45.425 L 33.565 45.425 L 33.565 45.425 Q 31.12 46.64 28.06 46.64 L 28.06 46.64 L 28.06 46.64 Q 25.24 46.64 23.245 45.71 L 23.245 45.71 L 23.245 45.71 Q 21.25 44.78 19.72 43.07 L 19.72 43.07 L 19.72 56.51 Z  M 27.91 19.61 L 27.91 19.61 L 27.91 19.61 Q 25.3 19.61 23.335 20.81 L 23.335 20.81 L 23.335 20.81 Q 21.37 22.01 19.72 24.2 L 19.72 24.2 L 19.72 38.9 L 19.72 38.9 Q 21.19 40.88 22.945 41.69 L 22.945 41.69 L 22.945 41.69 Q 24.7 42.5 26.86 42.5 L 26.86 42.5 L 26.86 42.5 Q 31.09 42.5 33.37 39.47 L 33.37 39.47 L 33.37 39.47 Q 35.65 36.44 35.65 30.83 L 35.65 30.83 L 35.65 30.83 Q 35.65 27.86 35.125 25.73 L 35.125 25.73 L 35.125 25.73 Q 34.6 23.6 33.61 22.235 L 33.61 22.235 L 33.61 22.235 Q 32.62 20.87 31.18 20.24 L 31.18 20.24 L 31.18 20.24 Q 29.74 19.61 27.91 19.61 Z  M 47.68 2.03 L 53.05 2.03 L 53.05 28.04 L 54.43 28.04 L 54.43 28.04 Q 55.03 28.04 55.42 27.875 L 55.42 27.875 L 55.42 27.875 Q 55.81 27.71 56.29 27.2 L 56.29 27.2 L 65.89 16.91 L 65.89 16.91 Q 66.34 16.43 66.79 16.13 L 66.79 16.13 L 66.79 16.13 Q 67.24 15.83 67.99 15.83 L 67.99 15.83 L 72.85 15.83 L 61.66 27.74 L 61.66 27.74 Q 61.24 28.25 60.835 28.64 L 60.835 28.64 L 60.835 28.64 Q 60.43 29.03 59.92 29.33 L 59.92 29.33 L 59.92 29.33 Q 60.46 29.69 60.895 30.155 L 60.895 30.155 L 60.895 30.155 Q 61.33 30.62 61.72 31.22 L 61.72 31.22 L 73.6 46.22 L 68.8 46.22 L 68.8 46.22 Q 68.14 46.22 67.675 45.965 L 67.675 45.965 L 67.675 45.965 Q 67.21 45.71 66.79 45.17 L 66.79 45.17 L 56.8 32.72 L 56.8 32.72 Q 56.35 32.09 55.9 31.895 L 55.9 31.895 L 55.9 31.895 Q 55.45 31.7 54.55 31.7 L 54.55 31.7 L 53.05 31.7 L 53.05 46.22 L 47.68 46.22 L 47.68 2.03 Z "
      fill-rule="evenodd"
      fill="rgb(0,0,0)"/></g>
  </g>
</svg>
