<?xml version="1.0" standalone="no"?>
<!-- Generator: Gravit.io -->
<svg xmlns="http://www.w3.org/2000/svg" xmlns:xlink="http://www.w3.org/1999/xlink" style="isolation:isolate" viewBox="0 0 100 100" width="40" height="40">
  <defs>
    <clipPath id="_clipPath_IUvKTHwQ2aTMXendCL3HLzgsX5NUNs5Y"><rect width="100" height="100"/></clipPath>
  </defs>
  <g clip-path="url(#_clipPath_IUvKTHwQ2aTMXendCL3HLzgsX5NUNs5Y)"><rect width="100" height="100" style="fill:rgba(255,255,255,0)"/>
    <g id="Group"><rect x="1" y="1" width="98" height="98" transform="matrix(1,0,0,1,0,0)" fill="none" vector-effect="non-scaling-stroke" stroke-width="2.005" stroke="rgb(0,0,0)" stroke-linejoin="miter" stroke-linecap="square" stroke-miterlimit="3"/><path
      d=" M 13.32 98.5 L 13.32 55.18 L 17.76 55.18 L 17.76 57.34 L 17.76 57.34 Q 20.1 55.96 22.29 55.27 L 22.29 55.27 L 22.29 55.27 Q 24.48 54.58 26.94 54.58 L 26.94 54.58 L 26.94 54.58 Q 32.52 54.58 35.07 58.27 L 35.07 58.27 L 35.07 58.27 Q 37.62 61.96 37.62 70 L 37.62 70 L 37.62 70 Q 37.62 75.7 36.3 79.15 L 36.3 79.15 L 36.3 79.15 Q 34.98 82.6 32.1 84.19 L 32.1 84.19 L 32.1 84.19 Q 29.22 85.78 24.36 85.78 L 24.36 85.78 L 24.36 85.78 Q 21 85.78 17.82 85.12 L 17.82 85.12 L 17.82 98.5 L 13.32 98.5 Z  M 24.42 81.88 L 24.42 81.88 Q 29.1 81.88 31.08 79.12 L 31.08 79.12 L 31.08 79.12 Q 33.06 76.36 33.06 70.18 L 33.06 70.18 L 33.06 70.18 Q 33.06 64.06 31.35 61.33 L 31.35 61.33 L 31.35 61.33 Q 29.64 58.6 26.16 58.6 L 26.16 58.6 L 26.16 58.6 Q 24.42 58.6 22.41 59.17 L 22.41 59.17 L 22.41 59.17 Q 20.4 59.74 18.96 60.4 L 18.96 60.4 L 17.82 61 L 17.82 81.22 L 17.82 81.22 Q 22.26 81.88 24.42 81.88 L 24.42 81.88 Z  M 54.66 85.72 L 54.66 85.72 Q 50.7 85.72 46.62 85.3 L 46.62 85.3 L 44.94 85.12 L 44.94 42.1 L 49.38 42.1 L 49.38 56.68 L 49.38 56.68 Q 54.06 54.58 58.5 54.58 L 58.5 54.58 L 58.5 54.58 Q 62.46 54.58 64.74 56.11 L 64.74 56.11 L 64.74 56.11 Q 67.02 57.64 68.07 61 L 68.07 61 L 68.07 61 Q 69.12 64.36 69.12 70 L 69.12 70 L 69.12 70 Q 69.12 76.18 67.8 79.54 L 67.8 79.54 L 67.8 79.54 Q 66.48 82.9 63.39 84.31 L 63.39 84.31 L 63.39 84.31 Q 60.3 85.72 54.66 85.72 L 54.66 85.72 Z  M 55.14 81.76 L 55.14 81.76 Q 58.92 81.76 60.96 80.59 L 60.96 80.59 L 60.96 80.59 Q 63 79.42 63.78 76.9 L 63.78 76.9 L 63.78 76.9 Q 64.56 74.38 64.56 69.88 L 64.56 69.88 L 64.56 69.88 Q 64.56 65.62 63.9 63.19 L 63.9 63.19 L 63.9 63.19 Q 63.24 60.76 61.71 59.68 L 61.71 59.68 L 61.71 59.68 Q 60.18 58.6 57.48 58.6 L 57.48 58.6 L 57.48 58.6 Q 54.18 58.6 49.38 60.34 L 49.38 60.34 L 49.38 81.46 L 49.38 81.46 Q 53.7 81.76 55.14 81.76 L 55.14 81.76 Z "
      fill-rule="evenodd"
      fill="rgb(0,0,0)"/><path
      d=" M 13.32 57.5 L 13.32 14.18 L 17.76 14.18 L 17.76 16.34 L 17.76 16.34 Q 20.1 14.96 22.29 14.27 L 22.29 14.27 L 22.29 14.27 Q 24.48 13.58 26.94 13.58 L 26.94 13.58 L 26.94 13.58 Q 32.52 13.58 35.07 17.27 L 35.07 17.27 L 35.07 17.27 Q 37.62 20.96 37.62 29 L 37.62 29 L 37.62 29 Q 37.62 34.7 36.3 38.15 L 36.3 38.15 L 36.3 38.15 Q 34.98 41.6 32.1 43.19 L 32.1 43.19 L 32.1 43.19 Q 29.22 44.78 24.36 44.78 L 24.36 44.78 L 24.36 44.78 Q 21 44.78 17.82 44.12 L 17.82 44.12 L 17.82 57.5 L 13.32 57.5 Z  M 24.42 40.88 L 24.42 40.88 Q 29.1 40.88 31.08 38.12 L 31.08 38.12 L 31.08 38.12 Q 33.06 35.36 33.06 29.18 L 33.06 29.18 L 33.06 29.18 Q 33.06 23.06 31.35 20.33 L 31.35 20.33 L 31.35 20.33 Q 29.64 17.6 26.16 17.6 L 26.16 17.6 L 26.16 17.6 Q 24.42 17.6 22.41 18.17 L 22.41 18.17 L 22.41 18.17 Q 20.4 18.74 18.96 19.4 L 18.96 19.4 L 17.82 20 L 17.82 40.22 L 17.82 40.22 Q 22.26 40.88 24.42 40.88 L 24.42 40.88 Z  M 44.94 44.18 L 44.94 1.1 L 49.44 1.1 L 49.44 26.54 L 54.12 26.3 L 62.7 14.18 L 67.8 14.18 L 58.02 27.98 L 68.22 44.18 L 63.12 44.18 L 54.18 30.26 L 49.44 30.44 L 49.38 44.12 L 44.94 44.18 Z "
      fill-rule="evenodd"
      fill="rgb(0,0,0)"/></g>
  </g>
</svg>
